<svg width="49" height="48" viewBox="0 0 49 48" fill="none" xmlns="http://www.w3.org/2000/svg">
<path d="M21.7498 0.171353C10.4569 1.40918 1.37351 10.5691 0.146026 21.7095C-1.08146 33.3451 5.54697 43.7428 15.6124 47.7039C16.3489 47.9514 17.0853 47.4563 17.0853 46.466V42.505C17.0853 42.505 16.1034 42.7526 14.8759 42.7526C11.4389 42.7526 9.96592 39.7818 9.72042 38.0488C9.47493 37.0586 8.98393 36.3159 8.24744 35.5732C7.51095 35.3256 7.26545 35.3256 7.26545 35.0781C7.26545 34.5829 8.00194 34.5829 8.24744 34.5829C9.72042 34.5829 10.9479 36.3159 11.4389 37.0586C12.6664 39.0391 14.1394 39.5342 14.8759 39.5342C15.8579 39.5342 16.5943 39.2867 17.0853 39.0391C17.3308 37.3061 18.0673 35.5732 19.5403 34.5829C13.8939 33.3451 9.72042 30.1267 9.72042 24.6803C9.72042 21.9571 10.9479 19.2339 12.6664 17.2534C12.4209 16.7582 12.1754 15.5204 12.1754 13.7874C12.1754 12.7972 12.1754 11.3118 12.9119 9.8264C12.9119 9.8264 16.3489 9.8264 19.7858 13.0447C21.0133 12.5496 22.7318 12.302 24.4503 12.302C26.1687 12.302 27.8872 12.5496 29.3602 13.0447C32.5517 9.8264 36.2341 9.8264 36.2341 9.8264C36.7251 11.3118 36.7251 12.7972 36.7251 13.7874C36.7251 15.768 36.4796 16.7582 36.2341 17.2534C37.9526 19.2339 39.1801 21.7095 39.1801 24.6803C39.1801 30.1267 35.0066 33.3451 29.3602 34.5829C30.8332 35.8207 31.8152 38.0488 31.8152 40.2769V46.7136C31.8152 47.4563 32.5517 48.199 33.5337 47.9514C42.6171 44.238 49 35.3256 49 24.9279C49 10.074 36.4796 -1.5616 21.7498 0.171353Z" fill="#00BFAE"/>
</svg>
