<svg width="44" height="36" viewBox="0 0 44 36" fill="none" xmlns="http://www.w3.org/2000/svg">
<path d="M7 0C3.15762 0 0 3.15762 0 7V30C0 33.2899 2.71006 36 6 36H14V21.3477L22 27.5977L30 21.3477V36H38C41.2899 36 44 33.2899 44 30V7C44 3.15762 40.8424 0 37 0C35.5002 0 33.9651 0.48452 32.6875 1.48438L22 9.82422L11.3125 1.48438H11.3086C10.0316 0.486162 8.49854 0 7 0ZM7 4C7.66025 4 8.28525 4.19657 8.84766 4.63672L10 5.53516V13.1484L4 8.46484V7C4 5.31838 5.31838 4 7 4ZM37 4C38.6816 4 40 5.31838 40 7V8.46484L34 13.1484V5.53516L35.1523 4.63672C35.7147 4.19657 36.3398 4 37 4ZM14 8.65625L22 14.8984L30 8.65625V16.2734L22 22.5234L14 16.2734V8.65625ZM4 13.5391L10 18.2227V32H6C4.86994 32 4 31.1301 4 30V13.5391ZM40 13.5391V30C40 31.1301 39.1301 32 38 32H34V18.2227L40 13.5391Z" fill="#00BFAE"/>
</svg>
