<?xml version="1.0" standalone="no"?>
<!DOCTYPE svg PUBLIC "-//W3C//DTD SVG 20010904//EN"
 "http://www.w3.org/TR/2001/REC-SVG-20010904/DTD/svg10.dtd">
<svg version="1.0" xmlns="http://www.w3.org/2000/svg"
 width="14.000000pt" height="15.000000pt" viewBox="0 0 14.000000 15.000000"
 preserveAspectRatio="xMidYMid meet">

<g transform="translate(0.000000,15.000000) scale(0.100000,-0.100000)"
fill="#000000" stroke="none">
<path d="M44 128 c-5 -8 -2 -9 11 -4 10 4 28 0 41 -9 19 -12 24 -24 24 -55 0
-29 -4 -40 -15 -40 -8 0 -15 9 -15 20 0 13 -7 20 -20 20 -13 0 -20 -6 -19 -17
0 -11 3 -13 6 -5 8 19 23 14 23 -8 0 -15 7 -20 25 -20 23 0 25 4 25 46 0 35
-5 50 -22 65 -26 21 -54 24 -64 7z"/>
<path d="M12 58 c-2 -46 -1 -48 26 -47 22 1 23 2 5 6 -18 3 -23 13 -26 46 l-4
42 -1 -47z"/>
</g>
</svg>
