<?xml version="1.0" encoding="UTF-8"?>
<svg id="icons" xmlns="http://www.w3.org/2000/svg" viewBox="0 0 24 24">
  <defs>
    <style>
      .cls-1 {
        fill: none;
        stroke: #000;
        stroke-linecap: round;
        stroke-miterlimit: 10;
        stroke-width: 1.5px;
      }
    </style>
  </defs>
  <g id="_1" data-name="1">
    <path class="cls-1" d="M8.37,4.64l1.38-1.03c1.33-.99,3.16-.99,4.49,0l5.36,3.98c.56.42.89,1.08.89,1.78v9.26c0,1.28-1.04,2.33-2.33,2.33h-2.18c-.72,0-1.3-.58-1.3-1.3v-4.55c0-.49-.39-.88-.88-.88h-3.62c-.49,0-.88.39-.88.88v2.48"/>
    <path class="cls-1" d="M5.2,6.99l-.81.6c-.56.42-.89,1.08-.89,1.78v9.26c0,1.28,1.04,2.33,2.33,2.33h4.71"/>
  </g>
</svg>