<svg width="38" height="38" viewBox="0 0 38 38" fill="none" xmlns="http://www.w3.org/2000/svg">
<path d="M4.22222 0C1.88944 0 0 1.88944 0 4.22222V33.7778C0 36.1106 1.88944 38 4.22222 38H33.7778C36.1106 38 38 36.1106 38 33.7778V4.22222C38 1.88944 36.1106 0 33.7778 0H4.22222ZM4.22222 4.22222H33.7778V33.7778H4.22222V4.22222ZM10.0896 7.0013C8.28041 7.0013 7.1951 8.08889 7.1951 9.53711C7.1951 10.9853 8.28054 12.0688 9.9082 12.0688C11.7174 12.0688 12.8027 10.9853 12.8027 9.53711C12.8027 8.08889 11.7173 7.0013 10.0896 7.0013ZM7.33941 14.7778V29.5556H12.6667V14.7778H7.33941ZM17.0621 14.7778V29.5556H22.3893V21.4781C22.3893 19.0735 24.1049 18.7279 24.62 18.7279C25.1351 18.7279 26.5126 19.2445 26.5126 21.4781V29.5556H31.6667V21.4781C31.6667 16.84 29.6057 14.7778 27.028 14.7778C24.4503 14.7778 23.0754 15.6361 22.3893 16.8394V14.7778H17.0621Z" fill="#00BFAE"/>
</svg>
