<svg width="36" height="36" viewBox="0 0 36 36" fill="none" xmlns="http://www.w3.org/2000/svg">
<path d="M30.7538 5.238C27.3709 1.854 22.8663 0 18.0724 0C8.19497 0 0.144724 8.01 0.144724 17.838C0.144724 20.988 0.976884 24.048 2.53266 26.748L0 36L9.49749 33.516C12.1206 34.938 15.0693 35.694 18.0724 35.694C27.9497 35.694 36 27.684 36 17.856C36 13.086 34.1367 8.604 30.7538 5.238ZM18.0724 32.67C15.395 32.67 12.7719 31.95 10.4744 30.6L9.93166 30.276L4.28744 31.752L5.78894 26.28L5.42714 25.722C3.94372 23.364 3.14774 20.628 3.14774 17.838C3.14774 9.666 9.8412 3.006 18.0543 3.006C22.0342 3.006 25.7789 4.554 28.5829 7.362C31.405 10.17 32.9427 13.896 32.9427 17.856C32.9789 26.028 26.2854 32.67 18.0724 32.67ZM26.2492 21.582C25.797 21.366 23.5899 20.286 23.192 20.124C22.7759 19.98 22.4864 19.908 22.1789 20.34C21.8714 20.79 21.0211 21.798 20.7678 22.086C20.5146 22.392 20.2432 22.428 19.791 22.194C19.3387 21.978 17.8915 21.492 16.191 19.98C14.8523 18.792 13.9658 17.334 13.6945 16.884C13.4412 16.434 13.6583 16.2 13.8935 15.966C14.0925 15.768 14.3457 15.444 14.5628 15.192C14.7799 14.94 14.8704 14.742 15.0151 14.454C15.1598 14.148 15.0874 13.896 14.9789 13.68C14.8703 13.464 13.9658 11.268 13.604 10.368C13.2422 9.504 12.8623 9.612 12.591 9.594C12.3196 9.594 12.0301 9.594 11.7226 9.594C11.4151 9.594 10.9447 9.702 10.5286 10.152C10.1307 10.602 8.97286 11.682 8.97286 13.878C8.97286 16.074 10.5829 18.198 10.8 18.486C11.0171 18.792 13.9658 23.292 18.4523 25.218C19.5196 25.686 20.3518 25.956 21.003 26.154C22.0703 26.496 23.0472 26.442 23.8251 26.334C24.6935 26.208 26.4844 25.254 26.8462 24.21C27.2261 23.166 27.2261 22.284 27.0995 22.086C26.9729 21.888 26.7015 21.798 26.2492 21.582Z" fill="#00BFAE"/>
</svg>
